<?xml version="1.0" standalone="no"?>
<!DOCTYPE svg PUBLIC "-//W3C//DTD SVG 20010904//EN"
 "http://www.w3.org/TR/2001/REC-SVG-20010904/DTD/svg10.dtd">
<svg version="1.0" xmlns="http://www.w3.org/2000/svg"
 width="1024.000000pt" height="1024.000000pt" viewBox="0 0 1024.000000 1024.000000"
 preserveAspectRatio="xMidYMid meet">
<metadata>
Created by potrace 1.14, written by Peter Selinger 2001-2017
</metadata>
<g transform="translate(0.000000,1024.000000) scale(0.100000,-0.100000)"
fill="#000000" stroke="none">
<path d="M2787 9244 c-1 -2 -40 -5 -87 -8 -47 -3 -110 -10 -140 -15 -30 -6
-66 -12 -80 -15 -14 -2 -45 -9 -70 -16 -25 -7 -52 -13 -61 -15 -44 -9 -186
-63 -279 -106 -250 -118 -442 -262 -615 -459 -62 -70 -159 -204 -189 -260 -10
-19 -22 -37 -25 -40 -4 -3 -22 -36 -40 -75 -91 -191 -116 -258 -157 -430 -25
-101 -44 -247 -49 -370 -5 -104 -5 -108 -4 -152 0 -16 0 -41 0 -58 0 -16 0
-351 2 -743 1 -393 -1 -716 -6 -719 -4 -2 -5 -9 -1 -14 10 -17 12 -59 2 -65
-4 -3 -6 -10 -2 -15 10 -17 12 -59 2 -65 -4 -3 -6 -10 -2 -15 10 -17 12 -59 3
-65 -5 -3 -6 -13 -1 -22 6 -14 8 -686 2 -702 -1 -3 -1 -9 0 -15 7 -32 6 -56
-2 -61 -4 -3 -6 -10 -2 -15 10 -17 12 -59 2 -65 -4 -3 -6 -10 -2 -15 10 -17
12 -59 3 -65 -5 -3 -6 -13 -1 -22 9 -21 9 -43 -1 -59 -5 -7 -4 -13 2 -13 5 0
7 -10 5 -23 -3 -12 -5 -26 -5 -32 0 -5 3 -392 5 -860 5 -872 5 -886 25 -993 7
-34 9 -67 6 -72 -3 -6 -1 -10 4 -10 6 0 10 -3 9 -7 -1 -5 7 -44 18 -88 10 -44
18 -86 17 -93 0 -6 3 -12 7 -12 4 0 13 -19 20 -42 8 -24 18 -48 23 -55 5 -7 6
-17 2 -23 -3 -5 -1 -10 4 -10 6 0 10 -3 9 -7 -1 -5 3 -18 10 -31 7 -12 10 -28
6 -34 -4 -6 -3 -8 2 -5 5 3 28 -32 49 -79 22 -46 44 -84 49 -84 4 0 5 -7 2
-16 -3 -8 -2 -13 3 -10 4 3 17 -11 27 -32 10 -20 25 -41 32 -45 6 -4 12 -13
12 -18 0 -6 -5 -7 -12 -3 -7 4 -8 3 -4 -5 4 -6 11 -9 15 -7 9 6 75 -79 70 -88
-2 -3 6 -13 19 -21 12 -9 19 -22 16 -28 -4 -7 -4 -9 0 -5 9 7 56 -30 56 -44 0
-5 -5 -6 -12 -2 -7 4 -8 3 -4 -4 4 -6 13 -9 21 -5 8 3 15 0 15 -6 0 -6 15 -25
33 -42 17 -17 26 -27 18 -23 -9 5 -12 3 -7 -5 4 -6 11 -9 16 -6 5 3 30 -15 56
-40 26 -25 50 -45 53 -45 9 -1 51 -37 51 -45 0 -4 -7 -4 -16 -1 -9 3 -12 2 -9
-5 4 -6 14 -8 22 -5 20 8 55 -12 47 -27 -4 -7 -4 -9 1 -5 11 11 47 -11 39 -24
-4 -7 -3 -8 4 -4 12 7 60 -14 84 -36 7 -7 39 -26 70 -42 32 -15 56 -31 54 -35
-2 -3 8 -7 22 -8 14 0 31 -7 36 -15 6 -7 20 -13 31 -13 11 0 20 -5 20 -12 0
-6 4 -15 9 -20 5 -5 6 -3 2 4 -9 15 20 18 29 3 3 -5 15 -10 26 -10 11 0 18 -4
15 -9 -4 -5 3 -7 14 -4 13 3 22 -1 26 -12 5 -11 9 -13 14 -5 3 6 14 8 23 4 9
-3 14 -11 10 -17 -3 -6 -1 -7 6 -3 18 12 112 -14 104 -27 -4 -7 2 -5 12 3 17
14 18 13 12 -4 -7 -17 -6 -17 9 -5 12 9 18 10 21 3 2 -6 15 -9 30 -6 20 4 24
2 18 -9 -6 -11 -5 -11 5 -2 13 12 40 7 52 -11 5 -8 8 -8 8 0 0 8 11 9 35 4 19
-4 35 -5 35 -1 0 3 5 -1 10 -9 6 -9 10 -11 10 -3 0 7 6 10 14 7 7 -3 33 -6 58
-8 24 -1 49 -5 55 -9 6 -4 14 -3 18 3 3 5 11 10 16 10 6 0 7 -5 3 -11 -5 -8
-2 -9 12 -1 14 8 21 6 32 -6 7 -10 11 -12 8 -5 -4 6 -2 14 4 18 5 3 10 0 10
-7 0 -10 2 -10 9 0 11 19 24 17 32 -5 6 -14 8 -15 8 -2 1 17 31 22 31 5 0 -6
5 -4 10 4 9 13 10 13 10 0 0 -13 1 -13 10 0 8 12 10 12 11 -5 0 -18 1 -19 8
-2 4 10 11 18 16 18 5 0 12 -8 16 -18 7 -17 8 -16 8 2 1 17 3 17 11 5 5 -8 10
-10 10 -4 0 17 44 11 52 -6 5 -11 7 -10 7 5 1 17 3 17 11 5 7 -11 10 -11 10
-2 0 7 5 10 10 7 6 -4 7 -11 4 -17 -4 -7 -2 -8 5 -4 6 4 9 11 7 15 -6 9 79 5
94 -4 5 -3 10 -3 10 2 0 4 11 8 25 8 14 0 25 -4 25 -10 0 -7 3 -7 8 0 4 6 79
10 187 10 108 0 183 -4 187 -10 5 -7 8 -7 8 0 0 6 11 10 25 10 18 0 24 -4 20
-15 -4 -13 -4 -13 7 0 11 13 101 15 704 14 381 -1 699 -4 708 -7 9 -4 16 -3
16 1 0 4 11 7 25 7 14 0 25 -4 25 -10 0 -7 3 -7 8 0 4 6 79 10 187 10 108 0
183 -4 187 -10 5 -7 8 -7 8 0 0 6 11 10 25 10 18 0 24 -4 20 -15 -4 -13 -4
-13 7 0 7 8 24 15 38 15 14 0 28 -7 32 -15 6 -13 7 -13 7 0 1 21 71 22 72 0 0
-13 1 -13 7 0 10 21 72 22 73 1 0 -14 1 -14 7 -1 9 20 65 20 74 0 6 -13 7 -13
7 0 1 12 14 15 65 14 35 -1 69 -5 75 -8 6 -4 11 -4 11 1 0 4 11 8 25 8 14 0
25 -4 25 -10 0 -7 3 -7 8 0 4 6 73 10 170 10 137 0 162 -2 163 -15 0 -13 1
-13 7 0 5 11 25 15 82 15 57 0 77 -4 82 -15 6 -13 7 -13 7 0 1 21 71 22 72 0
0 -13 1 -13 7 0 9 20 65 20 74 0 6 -13 7 -13 7 0 1 21 71 22 72 0 0 -10 3 -9
9 5 6 13 9 15 9 5 1 -9 4 -11 9 -5 9 14 55 13 64 0 5 -6 8 -5 8 3 0 6 5 12 11
12 5 0 8 -4 4 -9 -3 -6 7 -6 26 -1 27 8 30 7 25 -8 -5 -15 -4 -15 6 -2 15 17
128 22 140 5 5 -6 8 -7 8 0 0 13 160 13 179 1 10 -6 12 -6 7 2 -5 8 1 12 14
12 14 0 19 -4 14 -12 -6 -10 -5 -10 8 -1 8 7 18 10 21 6 4 -3 7 -2 7 4 0 5 15
10 33 10 38 0 92 8 106 18 6 3 11 1 11 -6 0 -8 4 -8 15 1 8 7 22 10 30 6 8 -3
15 -1 15 4 0 6 3 9 8 8 4 -1 26 2 49 6 24 4 45 7 48 7 2 0 25 8 50 19 25 11
43 15 39 9 -3 -6 6 -3 21 7 28 18 42 23 82 27 11 1 19 5 16 9 -2 5 2 8 10 8 8
0 49 18 91 39 42 22 74 34 70 28 -3 -7 0 -5 8 4 14 16 48 33 61 30 4 0 10 6
13 14 4 8 12 15 19 15 6 0 22 9 35 20 13 12 30 18 37 16 7 -3 13 1 13 8 0 13
27 31 43 28 4 -1 6 2 5 7 -2 5 0 8 4 7 3 0 17 9 30 22 14 12 28 19 33 15 4 -5
5 -3 1 4 -4 7 6 19 24 29 16 10 30 22 30 27 0 4 5 5 10 2 6 -3 10 -1 10 6 0
22 33 39 50 26 13 -10 13 -10 1 6 -12 16 -9 22 12 18 5 -1 6 2 3 7 -3 5 13 26
35 46 22 20 38 36 34 36 -4 0 6 13 22 29 42 43 64 70 112 138 24 35 47 60 52
57 5 -3 6 3 2 12 -5 13 -3 15 7 9 8 -5 11 -4 6 3 -8 13 88 175 98 165 4 -4 4
0 0 10 -3 9 2 31 14 50 10 19 25 50 32 71 10 32 14 35 28 24 15 -11 15 -11 5
2 -9 13 -9 27 3 68 9 29 19 52 22 52 4 0 8 15 9 32 2 18 7 34 13 36 6 2 8 8 5
12 -3 5 1 36 9 68 20 73 24 100 25 136 1 23 4 26 15 17 10 -8 16 -9 21 -1 4 6
1 9 -7 8 -18 -4 -24 52 -6 63 7 5 8 9 3 9 -6 0 -10 12 -9 28 1 15 3 27 4 27 2
0 4 180 6 400 1 220 4 402 5 405 1 3 0 10 -1 15 -7 32 -6 56 2 61 4 3 6 10 2
15 -10 17 -12 59 -2 65 4 3 6 10 2 15 -10 17 -12 59 -2 65 4 3 6 10 2 15 -10
17 -12 59 -2 65 4 3 6 10 2 15 -10 17 -12 59 -2 65 4 3 6 10 2 15 -10 17 -12
59 -2 65 4 3 6 10 2 15 -10 17 -12 59 -3 65 5 3 6 13 1 22 -6 14 -8 686 -2
702 1 3 1 10 0 15 -7 32 -6 56 2 61 4 3 6 10 2 15 -10 17 -12 59 -2 65 4 3 6
10 2 15 -10 17 -12 59 -2 65 4 3 6 10 2 15 -10 17 -12 59 -2 65 4 3 6 10 2 15
-10 17 -12 59 -2 65 4 3 6 10 2 15 -10 17 -12 59 -2 65 4 3 6 10 2 15 -10 17
-12 59 -3 65 5 3 6 13 1 22 -6 14 -8 686 -2 702 1 3 1 10 0 15 -7 32 -6 56 2
61 4 3 6 10 2 15 -10 17 -12 59 -2 65 4 3 6 10 2 15 -10 17 -12 59 -2 65 4 3
6 10 2 15 -10 17 -12 59 -2 65 4 3 6 10 2 15 -10 17 -12 59 -2 65 4 3 6 10 2
15 -10 17 -12 59 -2 65 4 3 6 10 2 15 -10 17 -12 59 -2 65 4 3 5 10 1 16 -9
16 -10 718 0 718 5 0 5 6 0 13 -4 6 -8 44 -10 82 -1 39 -3 70 -4 70 0 0 -2 16
-3 35 -2 19 -8 68 -15 108 -7 40 -11 82 -8 93 3 10 1 17 -3 14 -9 -6 -16 12
-25 60 -2 17 -7 39 -9 50 -5 22 -48 144 -67 190 -7 17 -13 32 -14 35 0 3 -20
43 -43 89 -23 46 -39 88 -35 94 3 5 2 7 -3 4 -6 -3 -25 20 -43 51 -97 164
-307 398 -457 507 -38 28 -71 52 -74 55 -13 13 -114 70 -205 117 -108 55 -290
125 -370 143 -27 7 -61 16 -75 21 -14 4 -45 11 -70 14 -25 2 -56 7 -70 10 -14
3 -52 8 -85 11 -52 6 -4773 13 -4778 8z"/>
<path d="M9276 6802 c-3 -5 1 -9 9 -9 8 0 12 4 9 9 -3 4 -7 8 -9 8 -2 0 -6 -4
-9 -8z"/>
<path d="M916 4202 c-3 -5 1 -9 9 -9 8 0 12 4 9 9 -3 4 -7 8 -9 8 -2 0 -6 -4
-9 -8z"/>
<path d="M8996 1873 c-6 -14 -5 -15 5 -6 7 7 10 15 7 18 -3 3 -9 -2 -12 -12z"/>
<path d="M8895 1720 c3 -5 8 -10 11 -10 2 0 4 5 4 10 0 6 -5 10 -11 10 -5 0
-7 -4 -4 -10z"/>
<path d="M1373 1695 c0 -8 4 -12 9 -9 5 3 6 10 3 15 -9 13 -12 11 -12 -6z"/>
<path d="M8846 1658 c3 -5 10 -6 15 -3 13 9 11 12 -6 12 -8 0 -12 -4 -9 -9z"/>
<path d="M8810 1620 c0 -5 5 -10 11 -10 5 0 7 5 4 10 -3 6 -8 10 -11 10 -2 0
-4 -4 -4 -10z"/>
<path d="M8770 1579 c0 -5 5 -7 10 -4 6 3 10 8 10 11 0 2 -4 4 -10 4 -5 0 -10
-5 -10 -11z"/>
<path d="M1485 1480 c-3 -6 1 -7 9 -4 18 7 21 14 7 14 -6 0 -13 -4 -16 -10z"/>
<path d="M1646 1362 c-3 -5 1 -9 9 -9 8 0 12 4 9 9 -3 4 -7 8 -9 8 -2 0 -6 -4
-9 -8z"/>
<path d="M8535 1340 c3 -5 8 -10 11 -10 2 0 4 5 4 10 0 6 -5 10 -11 10 -5 0
-7 -4 -4 -10z"/>
<path d="M8495 1311 c-3 -5 -2 -12 3 -15 5 -3 9 1 9 9 0 17 -3 19 -12 6z"/>
<path d="M1734 1302 c4 -3 14 -7 22 -8 9 -1 13 0 10 4 -4 3 -14 7 -22 8 -9 1
-13 0 -10 -4z"/>
<path d="M8450 1299 c0 -5 5 -7 10 -4 6 3 10 8 10 11 0 2 -4 4 -10 4 -5 0 -10
-5 -10 -11z"/>
<path d="M1786 1242 c-3 -5 1 -9 9 -9 8 0 12 4 9 9 -3 4 -7 8 -9 8 -2 0 -6 -4
-9 -8z"/>
<path d="M1830 1246 c0 -2 7 -7 16 -10 8 -3 12 -2 9 4 -6 10 -25 14 -25 6z"/>
<path d="M8346 1242 c-3 -5 1 -9 9 -9 8 0 12 4 9 9 -3 4 -7 8 -9 8 -2 0 -6 -4
-9 -8z"/>
<path d="M1916 1202 c-3 -5 1 -9 9 -9 8 0 12 4 9 9 -3 4 -7 8 -9 8 -2 0 -6 -4
-9 -8z"/>
<path d="M2050 1120 c0 -5 5 -10 11 -10 5 0 7 5 4 10 -3 6 -8 10 -11 10 -2 0
-4 -4 -4 -10z"/>
<path d="M8153 1085 c0 -8 4 -12 9 -9 5 3 6 10 3 15 -9 13 -12 11 -12 -6z"/>
<path d="M2175 1059 c-3 -4 2 -6 10 -5 21 3 28 13 10 13 -9 0 -18 -4 -20 -8z"/>
<path d="M2346 1038 c3 -5 10 -6 15 -3 13 9 11 12 -6 12 -8 0 -12 -4 -9 -9z"/>
<path d="M2275 1019 c-3 -4 2 -6 10 -5 21 3 28 13 10 13 -9 0 -18 -4 -20 -8z"/>
<path d="M7933 1015 c0 -8 4 -12 9 -9 5 3 6 10 3 15 -9 13 -12 11 -12 -6z"/>
<path d="M2494 976 c1 -8 5 -18 8 -22 4 -3 5 1 4 10 -1 8 -5 18 -8 22 -4 3 -5
-1 -4 -10z"/>
<path d="M3106 982 c-3 -5 1 -9 9 -9 8 0 12 4 9 9 -3 4 -7 8 -9 8 -2 0 -6 -4
-9 -8z"/>
<path d="M6540 980 c-9 -6 -10 -10 -3 -10 6 0 15 5 18 10 8 12 4 12 -15 0z"/>
<path d="M3650 976 c0 -2 8 -10 18 -17 15 -13 16 -12 3 4 -13 16 -21 21 -21
13z"/>
<path d="M3710 976 c0 -2 8 -10 18 -17 15 -13 16 -12 3 4 -13 16 -21 21 -21
13z"/>
<path d="M5570 976 c0 -2 8 -10 18 -17 15 -13 16 -12 3 4 -13 16 -21 21 -21
13z"/>
<path d="M5630 976 c0 -2 8 -10 18 -17 15 -13 16 -12 3 4 -13 16 -21 21 -21
13z"/>
<path d="M7250 976 c0 -2 8 -10 18 -17 15 -13 16 -12 3 4 -13 16 -21 21 -21
13z"/>
<path d="M2230 959 c0 -5 5 -7 10 -4 6 3 10 8 10 11 0 2 -4 4 -10 4 -5 0 -10
-5 -10 -11z"/>
<path d="M2907 959 c7 -7 15 -10 18 -7 3 3 -2 9 -12 12 -14 6 -15 5 -6 -5z"/>
<path d="M2987 959 c7 -7 15 -10 18 -7 3 3 -2 9 -12 12 -14 6 -15 5 -6 -5z"/>
<path d="M3306 958 c3 -5 10 -6 15 -3 13 9 11 12 -6 12 -8 0 -12 -4 -9 -9z"/>
<path d="M5226 958 c3 -5 10 -6 15 -3 13 9 11 12 -6 12 -8 0 -12 -4 -9 -9z"/>
<path d="M7461 956 c-9 -11 -9 -16 0 -22 7 -4 9 -3 5 4 -3 6 2 15 11 21 10 6
13 11 7 11 -6 0 -17 -6 -23 -14z"/>
<path d="M7506 962 c-3 -5 1 -9 9 -9 8 0 12 4 9 9 -3 4 -7 8 -9 8 -2 0 -6 -4
-9 -8z"/>
<path d="M7710 959 c0 -5 5 -7 10 -4 6 3 10 8 10 11 0 2 -4 4 -10 4 -5 0 -10
-5 -10 -11z"/>
<path d="M8086 958 c3 -5 10 -6 15 -3 13 9 11 12 -6 12 -8 0 -12 -4 -9 -9z"/>
<path d="M2825 940 c-3 -6 1 -7 9 -4 18 7 21 14 7 14 -6 0 -13 -4 -16 -10z"/>
<path d="M3050 940 c0 -5 5 -10 11 -10 5 0 7 5 4 10 -3 6 -8 10 -11 10 -2 0
-4 -4 -4 -10z"/>
<path d="M3095 940 c-3 -5 -1 -10 4 -10 6 0 11 5 11 10 0 6 -2 10 -4 10 -3 0
-8 -4 -11 -10z"/>
<path d="M3210 939 c0 -5 5 -7 10 -4 6 3 10 8 10 11 0 2 -4 4 -10 4 -5 0 -10
-5 -10 -11z"/>
<path d="M4370 939 c0 -5 5 -7 10 -4 6 3 10 8 10 11 0 2 -4 4 -10 4 -5 0 -10
-5 -10 -11z"/>
<path d="M5010 939 c0 -5 5 -7 10 -4 6 3 10 8 10 11 0 2 -4 4 -10 4 -5 0 -10
-5 -10 -11z"/>
<path d="M6090 939 c0 -5 5 -7 10 -4 6 3 10 8 10 11 0 2 -4 4 -10 4 -5 0 -10
-5 -10 -11z"/>
<path d="M6175 940 c3 -5 8 -10 11 -10 2 0 4 5 4 10 0 6 -5 10 -11 10 -5 0 -7
-4 -4 -10z"/>
<path d="M6210 939 c0 -5 5 -7 10 -4 6 3 10 8 10 11 0 2 -4 4 -10 4 -5 0 -10
-5 -10 -11z"/>
<path d="M6610 939 c0 -5 5 -7 10 -4 6 3 10 8 10 11 0 2 -4 4 -10 4 -5 0 -10
-5 -10 -11z"/>
<path d="M7095 940 c3 -5 8 -10 11 -10 2 0 4 5 4 10 0 6 -5 10 -11 10 -5 0 -7
-4 -4 -10z"/>
<path d="M7130 939 c0 -5 5 -7 10 -4 6 3 10 8 10 11 0 2 -4 4 -10 4 -5 0 -10
-5 -10 -11z"/>
<path d="M7170 939 c0 -5 5 -7 10 -4 6 3 10 8 10 11 0 2 -4 4 -10 4 -5 0 -10
-5 -10 -11z"/>
<path d="M3919 938 c-5 -18 -6 -38 -1 -34 7 8 12 36 6 36 -2 0 -4 -1 -5 -2z"/>
<path d="M4559 938 c-5 -18 -6 -38 -1 -34 7 8 12 36 6 36 -2 0 -4 -1 -5 -2z"/>
<path d="M3310 919 c0 -5 5 -7 10 -4 6 3 10 8 10 11 0 2 -4 4 -10 4 -5 0 -10
-5 -10 -11z"/>
<path d="M3486 922 c-3 -5 1 -9 9 -9 8 0 12 4 9 9 -3 4 -7 8 -9 8 -2 0 -6 -4
-9 -8z"/>
<path d="M3806 922 c-3 -5 1 -9 9 -9 8 0 12 4 9 9 -3 4 -7 8 -9 8 -2 0 -6 -4
-9 -8z"/>
<path d="M3870 919 c0 -5 5 -7 10 -4 6 3 10 8 10 11 0 2 -4 4 -10 4 -5 0 -10
-5 -10 -11z"/>
<path d="M4256 922 c-3 -5 1 -9 9 -9 8 0 12 4 9 9 -3 4 -7 8 -9 8 -2 0 -6 -4
-9 -8z"/>
<path d="M4510 919 c0 -5 5 -7 10 -4 6 3 10 8 10 11 0 2 -4 4 -10 4 -5 0 -10
-5 -10 -11z"/>
<path d="M4896 922 c-3 -5 1 -9 9 -9 8 0 12 4 9 9 -3 4 -7 8 -9 8 -2 0 -6 -4
-9 -8z"/>
<path d="M5406 922 c-3 -5 1 -9 9 -9 8 0 12 4 9 9 -3 4 -7 8 -9 8 -2 0 -6 -4
-9 -8z"/>
<path d="M5726 922 c-3 -5 1 -9 9 -9 8 0 12 4 9 9 -3 4 -7 8 -9 8 -2 0 -6 -4
-9 -8z"/>
<path d="M6496 922 c-3 -5 1 -9 9 -9 8 0 12 4 9 9 -3 4 -7 8 -9 8 -2 0 -6 -4
-9 -8z"/>
<path d="M7315 920 c3 -5 8 -10 11 -10 2 0 4 5 4 10 0 6 -5 10 -11 10 -5 0 -7
-4 -4 -10z"/>
<path d="M3193 905 c0 -8 4 -12 9 -9 5 3 6 10 3 15 -9 13 -12 11 -12 -6z"/>
<path d="M6879 918 c-5 -18 -6 -38 -1 -34 7 8 12 36 6 36 -2 0 -4 -1 -5 -2z"/>
<path d="M3066 878 c3 -5 10 -6 15 -3 13 9 11 12 -6 12 -8 0 -12 -4 -9 -9z"/>
<path d="M5760 840 c-9 -6 -10 -10 -3 -10 6 0 15 5 18 10 8 12 4 12 -15 0z"/>
</g>
</svg>
